<svg width="24" height="24" viewBox="0 0 24 24" fill="none" xmlns="http://www.w3.org/2000/svg">
<path d="M15.59 17.7408C14.9612 18.162 13.3126 19.0221 14.3167 20.0983C14.8072 20.624 15.3536 21 16.0404 21H18H19.9596C20.6464 21 21.1928 20.624 21.6833 20.0983C22.6874 19.0221 21.0388 18.162 20.41 17.7408C18.9355 16.7531 17.0645 16.7531 15.59 17.7408Z" stroke="#141B34" stroke-width="1.5"/>
<path d="M20 12.5C20 13.6046 19.1046 14.5 18 14.5C16.8954 14.5 16 13.6046 16 12.5C16 11.3954 16.8954 10.5 18 10.5C19.1046 10.5 20 11.3954 20 12.5Z" stroke="#141B34" stroke-width="1.5"/>
<path d="M18 3.75C18.4142 3.75 18.75 3.41421 18.75 3C18.75 2.58579 18.4142 2.25 18 2.25V3.75ZM10 2.25C9.58579 2.25 9.25 2.58579 9.25 3C9.25 3.41421 9.58579 3.75 10 3.75V2.25ZM10 5.25C9.58579 5.25 9.25 5.58579 9.25 6C9.25 6.41421 9.58579 6.75 10 6.75V5.25ZM15 6.75C15.4142 6.75 15.75 6.41421 15.75 6C15.75 5.58579 15.4142 5.25 15 5.25V6.75ZM18 2.25H10V3.75H18V2.25ZM10 6.75H15V5.25H10V6.75Z" fill="#141B34"/>
<path d="M7 9.5V14C7 14.9428 7 15.4142 6.70711 15.7071C6.41421 16 5.94281 16 5 16H4C3.05719 16 2.58579 16 2.29289 15.7071C2 15.4142 2 14.9428 2 14V11.5C2 10.5572 2 10.0858 2.29289 9.79289C2.58579 9.5 3.05719 9.5 4 9.5H7ZM7 9.5H12" stroke="#141B34" stroke-width="1.5" stroke-linecap="round" stroke-linejoin="round"/>
<path d="M6.5 5C6.5 6.10457 5.60457 7 4.5 7C3.39543 7 2.5 6.10457 2.5 5C2.5 3.89543 3.39543 3 4.5 3C5.60457 3 6.5 3.89543 6.5 5Z" stroke="#141B34" stroke-width="1.5"/>
</svg>
