<svg width="142" height="92" viewBox="0 0 142 92" fill="none" xmlns="http://www.w3.org/2000/svg">
<path d="M71.5276 66.1731C56.7032 70.9993 48.421 86.9225 46 91V34.1579C48.365 30.1747 56.3234 16.7711 70.5101 11.7707C71.607 11.3841 72.1555 11.1908 72.5777 11.4896C73 11.7885 73 12.394 73 13.6049V64.2013C73 64.9287 73 65.2924 72.8092 65.5552C72.6184 65.818 72.2548 65.9364 71.5276 66.1731Z" fill="#ECECEC" stroke="#141B34" stroke-width="1.5" stroke-linecap="round" stroke-linejoin="round"/>
<path d="M46 33.3392C42.909 30.3012 33.9479 23.0859 18.9125 20.5561C11.2955 19.2745 7.48705 18.6337 4.24352 21.0898C1 23.5459 1 27.5342 1 35.5109V64.1776C1 71.4711 1 75.1179 3.08169 77.3947C5.16338 79.6715 9.74643 80.4426 18.9125 81.9849C27.0835 83.3597 33.4605 85.5502 38.0763 87.7514C42.6177 89.9171 44.8885 91 46 91C47.1115 91 49.3823 89.9171 53.9237 87.7514C58.5395 85.5502 64.9165 83.3597 73.0875 81.9849C82.2536 80.4426 86.8366 79.6715 88.9183 77.3947C91 75.1179 91 71.4711 91 64.1776V35.5109C91 27.5342 91 23.5459 87.7565 21.0898C84.513 18.6337 77.5 20.5561 73 23.6316" stroke="#141B34" stroke-width="1.5" stroke-linecap="round" stroke-linejoin="round"/>
<path d="M104.736 2.71106C109.345 -0.121862 113.368 1.01977 115.785 2.83827C116.776 3.58389 117.271 3.95671 117.563 3.95671C117.854 3.95671 118.349 3.58389 119.34 2.83827C121.757 1.01977 125.78 -0.121862 130.389 2.71106C136.438 6.42896 137.806 18.6945 123.854 29.0425C121.196 31.0134 119.868 31.9989 117.563 31.9989C115.257 31.9989 113.929 31.0134 111.271 29.0425C97.3186 18.6945 98.6873 6.42896 104.736 2.71106Z" fill="#E9B8D5" stroke="#141B34" stroke-width="1.5" stroke-linecap="round"/>
<path d="M91 38.2H98.4838C99.403 38.2 100.31 38.4054 101.132 38.8001L107.513 41.8628C108.335 42.2575 109.242 42.4629 110.161 42.4629H113.419C116.57 42.4629 119.125 44.9152 119.125 47.9402C119.125 48.0625 119.041 48.1699 118.918 48.2035L110.978 50.3813C109.553 50.772 108.028 50.6359 106.703 49.9999L99.8816 46.7258" stroke="#141B34" stroke-width="1.5" stroke-linecap="round" stroke-linejoin="round"/>
<path d="M119.125 45.95L133.477 41.5756C136.022 40.7892 138.772 41.7217 140.366 43.9111C141.518 45.4941 141.049 47.761 139.37 48.7219L115.884 62.1646C114.39 63.0196 112.628 63.2282 110.985 62.7446L91 56.8618" stroke="#141B34" stroke-width="1.5" stroke-linecap="round" stroke-linejoin="round"/>
</svg>
