<svg width="41" height="40" viewBox="0 0 41 40" fill="none" xmlns="http://www.w3.org/2000/svg">
<path d="M35.965 17.0444V12.4C35.965 7.02599 35.965 4.33898 34.1578 2.66949C32.3506 1 29.4419 1 23.6244 1H13.3406C7.52319 1 4.61448 1 2.80724 2.66949C1 4.33898 1 7.02599 1 12.4V27.6C1 32.974 1 35.661 2.80724 37.3305C4.61448 39 7.52319 39 13.3406 39H23.6244" stroke="#141B34" stroke-width="1.5" stroke-linecap="round"/>
<path d="M7.99316 10.5L28.9722 10.5" stroke="#141B34" stroke-width="1.5" stroke-linecap="round" stroke-linejoin="round"/>
<path d="M7.99316 20H10.3242" stroke="#141B34" stroke-width="1.5" stroke-linecap="round" stroke-linejoin="round"/>
<path d="M17.3164 20H19.6474" stroke="#141B34" stroke-width="1.5" stroke-linecap="round" stroke-linejoin="round"/>
<path d="M26.6416 20H28.9726" stroke="#141B34" stroke-width="1.5" stroke-linecap="round" stroke-linejoin="round"/>
<path d="M7.99316 29.5H10.3242" stroke="#141B34" stroke-width="1.5" stroke-linecap="round" stroke-linejoin="round"/>
<path d="M17.3164 29.5H19.6474" stroke="#141B34" stroke-width="1.5" stroke-linecap="round" stroke-linejoin="round"/>
<path d="M29.8351 37.0434L29.6755 36.3106L29.6755 36.3106L29.8351 37.0434ZM27.8154 34.9855L28.5494 35.1396L27.8154 34.9855ZM29.2863 30.6411L28.751 30.1158L28.751 30.1158L29.2863 30.6411ZM34.099 35.5448L33.5638 35.0194L33.5638 35.0194L34.099 35.5448ZM40.6579 26.1363L41.3104 25.7665L41.3104 25.7665L40.6579 26.1363ZM39.6506 29.8884L40.1859 30.4137L40.1859 30.4137L39.6506 29.8884ZM40.6579 28.7368L41.3104 29.1066L41.3104 29.1066L40.6579 28.7368ZM38.5204 23.9585L38.9007 23.3121L38.9007 23.3121L38.5204 23.9585ZM34.8379 24.9847L35.3731 25.5101L35.3731 25.5101L34.8379 24.9847ZM35.9681 23.9585L35.5878 23.3121L35.5878 23.3121L35.9681 23.9585ZM39.1154 29.363L33.5638 35.0194L34.6343 36.0701L40.1859 30.4137L39.1154 29.363ZM29.8215 31.1665L35.3731 25.5101L34.3026 24.4594L28.751 30.1158L29.8215 31.1665ZM29.6755 36.3106C29.0717 36.4421 28.7035 36.5202 28.4431 36.5371C28.1981 36.553 28.2438 36.4994 28.3064 36.5632L27.2358 37.6139C27.6256 38.0109 28.1243 38.0609 28.5401 38.034C28.9403 38.008 29.4406 37.8969 29.9948 37.7762L29.6755 36.3106ZM27.0814 34.8315C26.9626 35.3975 26.8544 35.9037 26.8292 36.3077C26.8032 36.7233 26.8501 37.2208 27.2358 37.6139L28.3064 36.5632C28.365 36.6229 28.3102 36.6589 28.3263 36.4012C28.3431 36.132 28.4206 35.7533 28.5494 35.1396L27.0814 34.8315ZM39.1154 25.5101C39.7083 26.1142 39.8979 26.3165 40.0053 26.506L41.3104 25.7665C41.0818 25.3631 40.7119 24.9953 40.1859 24.4594L39.1154 25.5101ZM40.1859 30.4137C40.7119 29.8778 41.0818 29.51 41.3104 29.1066L40.0053 28.3671C39.8979 28.5566 39.7083 28.7589 39.1154 29.363L40.1859 30.4137ZM40.0053 26.506C40.3313 27.0813 40.3313 27.7918 40.0053 28.3671L41.3104 29.1066C41.8963 28.0726 41.8963 26.8005 41.3104 25.7665L40.0053 26.506ZM40.1859 24.4594C39.6606 23.9242 39.2988 23.5463 38.9007 23.3121L38.1402 24.605C38.3241 24.7131 38.5217 24.9052 39.1154 25.5101L40.1859 24.4594ZM35.3731 25.5101C35.9668 24.9052 36.1645 24.7131 36.3484 24.605L35.5878 23.3121C35.1897 23.5463 34.8279 23.9242 34.3026 24.4594L35.3731 25.5101ZM38.9007 23.3121C37.8763 22.7095 36.6122 22.7095 35.5878 23.3121L36.3484 24.605C36.9033 24.2785 37.5852 24.2785 38.1402 24.605L38.9007 23.3121ZM33.5638 35.0194C33.1435 35.4476 32.5956 35.6947 31.9177 35.871C31.578 35.9594 31.2208 36.0264 30.8401 36.0934C30.4684 36.1588 30.0648 36.2258 29.6755 36.3106L29.9948 37.7762C30.3459 37.6997 30.7068 37.6399 31.1002 37.5707C31.4845 37.503 31.8928 37.4274 32.2953 37.3227C33.1018 37.1129 33.9455 36.7719 34.6343 36.0701L33.5638 35.0194ZM28.5494 35.1396C28.6324 34.7439 28.698 34.3337 28.7623 33.9545C28.8281 33.5665 28.894 33.2013 28.9812 32.8536C29.1554 32.1582 29.3999 31.5961 29.8215 31.1665L28.751 30.1158C28.0635 30.8163 27.7309 31.6719 27.5261 32.489C27.4238 32.8975 27.3498 33.3122 27.2834 33.7037C27.2155 34.1039 27.1567 34.4727 27.0814 34.8315L28.5494 35.1396Z" fill="#141B34"/>
</svg>
