<svg width="19" height="18" viewBox="0 0 19 18" fill="none" xmlns="http://www.w3.org/2000/svg">
<path d="M15.131 10.7292L14.5947 7.48619C14.3631 6.08541 14.2473 5.38502 13.7886 4.97034C13.33 4.55566 12.6712 4.55566 11.3535 4.55566H7.81249C6.49485 4.55566 5.83603 4.55566 5.37739 4.97034C4.91876 5.38502 4.80294 6.08541 4.57131 7.48619L4.03505 10.7292C3.55427 13.6368 3.31388 15.0905 4.05412 16.0453C4.79436 17.0001 6.16184 17.0001 8.89681 17.0001H10.2692C13.0042 17.0001 14.3717 17.0001 15.1119 16.0453C15.8521 15.0905 15.6117 13.6368 15.131 10.7292Z" stroke="#0F298F" stroke-width="1.5" stroke-linecap="round"/>
<path d="M7.10742 8.5H12.5074" stroke="#0F298F" stroke-width="1.5" stroke-linecap="round"/>
<path d="M7.10742 11.5H12.5074" stroke="#0F298F" stroke-width="1.5" stroke-linecap="round"/>
<path d="M16.783 8.11111C16.9084 8.04081 17.0175 7.95218 17.1144 7.84046C17.583 7.30001 17.583 6.43016 17.583 4.69046C17.583 2.95076 17.583 2.08091 17.1144 1.54046C16.6457 1 15.8915 1 14.383 1L4.78301 1C3.27451 1 2.52027 1 2.05164 1.54045C1.58301 2.08091 1.58301 2.95076 1.58301 4.69046C1.58301 6.43016 1.58301 7.3 2.05164 7.84046C2.14851 7.95218 2.25759 8.04081 2.38301 8.11111" stroke="#0F298F" stroke-width="1.5" stroke-linecap="round"/>
</svg>
