<svg width="42" height="42" viewBox="0 0 42 42" fill="none" xmlns="http://www.w3.org/2000/svg">
<path d="M32.1111 29.8889V12.1111C32.1111 6.87328 32.1111 4.25437 30.4839 2.62718C28.8567 1 26.2378 1 21 1H12.1111C6.87328 1 4.25437 1 2.62718 2.62718C1 4.25437 1 6.87328 1 12.1111V29.8889C1 35.1267 1 37.7456 2.62718 39.3728C4.25437 41 6.87328 41 12.1111 41H21C26.2378 41 28.8567 41 30.4839 39.3728C32.1111 37.7456 32.1111 35.1267 32.1111 29.8889Z" stroke="#141B34" stroke-width="1.5"/>
<path d="M18.7778 41.0001H32.1112C36.3014 41.0001 38.3966 41.0001 39.6983 39.6983C41.0001 38.3966 41.0001 36.3015 41.0001 32.1112V16.5556C41.0001 12.3654 41.0001 10.2702 39.6983 8.9685C38.3966 7.66675 36.3014 7.66675 32.1112 7.66675" stroke="#141B34" stroke-width="1.5"/>
<path d="M23.2222 18.7778V23.2223" stroke="#141B34" stroke-width="1.5" stroke-linecap="round"/>
</svg>
