<svg width="42" height="42" viewBox="0 0 42 42" fill="none" xmlns="http://www.w3.org/2000/svg">
<path d="M1 9.88889C1 6.77749 1 5.22178 1.54497 4.03339C2.02433 2.98804 2.78924 2.13815 3.73005 1.60552C4.79961 1 6.19974 1 9 1C11.8003 1 13.2004 1 14.27 1.60552C15.2108 2.13815 15.9757 2.98804 16.455 4.03339C17 5.22178 17 6.77749 17 9.88889V32.1111C17 35.2225 17 36.7782 16.455 37.9666C15.9757 39.012 15.2108 39.8619 14.27 40.3945C13.2004 41 11.8003 41 9 41C6.19974 41 4.79961 41 3.73005 40.3945C2.78924 39.8619 2.02433 39.012 1.54497 37.9666C1 36.7782 1 35.2225 1 32.1111V9.88889Z" stroke="#141B34" stroke-width="1.5" stroke-linecap="round" stroke-linejoin="round"/>
<path d="M8.99976 32.1111H9.01772" stroke="#141B34" stroke-width="2" stroke-linecap="round" stroke-linejoin="round"/>
<path d="M1 9.88892H17" stroke="#141B34" stroke-width="1.5" stroke-linecap="round" stroke-linejoin="round"/>
<path d="M19.8973 12.7076C19.1875 9.75196 18.8326 8.27413 19.077 6.99109C19.292 5.86249 19.8217 4.83882 20.5902 4.06677C21.4638 3.18907 22.7884 2.79309 25.4374 2.00112C28.0864 1.20915 29.4109 0.813169 30.5609 1.08589C31.5724 1.32578 32.4899 1.9168 33.1818 2.77424C33.9685 3.74903 34.3234 5.22686 35.0332 8.18252L40.1027 29.2924C40.8125 32.248 41.1674 33.7259 40.923 35.0089C40.708 36.1375 40.1783 37.1612 39.4098 37.9332C38.5362 38.8109 37.2116 39.2069 34.5626 39.9989C31.9136 40.7908 30.5891 41.1868 29.4391 40.9141C28.4276 40.6742 27.5101 40.0832 26.8182 39.2258C26.0315 38.251 25.6766 36.7731 24.9668 33.8175L19.8973 12.7076Z" stroke="#141B34" stroke-width="1.5" stroke-linecap="round" stroke-linejoin="round"/>
<path d="M32.5624 31.4341L32.5797 31.4289" stroke="#141B34" stroke-width="2" stroke-linecap="round" stroke-linejoin="round"/>
<path d="M21 12.1116L34.0003 7.66675" stroke="#141B34" stroke-width="1.5" stroke-linecap="round" stroke-linejoin="round"/>
</svg>
