<svg width="42" height="42" viewBox="0 0 42 42" fill="none" xmlns="http://www.w3.org/2000/svg">
<path d="M32.1596 17.4203C31.1529 17.1463 30.0935 17 29 17C23.9336 17 19.6005 20.1398 17.8404 24.5797M32.1596 17.4203C37.2541 18.8072 41 23.4661 41 29C41 35.6274 35.6274 41 29 41C25.9266 41 23.123 39.8446 21 37.9444M32.1596 17.4203C32.7019 16.0524 33 14.561 33 13C33 6.37258 27.6274 1 21 1C14.3726 1 9 6.37258 9 13C9 14.561 9.29805 16.0524 9.84036 17.4203M17.8404 24.5797C17.2981 25.9476 17 27.439 17 29C17 32.554 18.545 35.7471 21 37.9444M17.8404 24.5797C14.1829 23.584 11.2206 20.9019 9.84036 17.4203M9.84036 17.4203C4.74587 18.8072 1 23.4661 1 29C1 35.6274 6.37258 41 13 41C16.0734 41 18.877 39.8446 21 37.9444" stroke="#141B34" stroke-width="1.5" stroke-linecap="round"/>
</svg>
