<svg width="14" height="22" viewBox="0 0 14 22" fill="none" xmlns="http://www.w3.org/2000/svg">
<path d="M10 4C10 5.65685 8.24179 7.5 7 7.5C5.75821 7.5 4 5.65685 4 4C4 2.34315 5.34315 1 7 1C8.65685 1 10 2.34315 10 4Z" stroke="#141B34" stroke-width="1.5"/>
<path d="M11.0415 8C12.5645 9.33531 13.5513 11.5969 12.6651 13.7052C12.4742 14.1594 12.0361 14.4539 11.5514 14.4539C11.0585 14.4539 10.2489 14.296 10.0917 14.9374L8.9944 19.4123C8.76561 20.3454 7.94333 21 6.99999 21C6.05666 21 5.23438 20.3454 5.00558 19.4123L3.90833 14.9374C3.75103 14.296 2.94149 14.4539 2.44862 14.4539C1.9639 14.4539 1.52582 14.1594 1.33488 13.7052C0.448664 11.5969 1.43558 9.33531 2.95857 8" stroke="#141B34" stroke-width="1.5" stroke-linecap="round"/>
</svg>
