<svg width="42" height="42" viewBox="0 0 42 42" fill="none" xmlns="http://www.w3.org/2000/svg">
<path d="M21 41C11.5719 41 6.85787 41 3.92893 38.364C1 35.7279 1 31.4853 1 23C1 14.5147 1 10.2721 3.92893 7.63604C6.85786 5 11.5719 5 21 5C30.4281 5 35.1421 5 38.0711 7.63604C41 10.2721 41 14.5147 41 23C41 31.4853 41 35.7279 38.0711 38.364C35.1421 41 30.4281 41 21 41Z" stroke="#141B34" stroke-width="1.5" stroke-linecap="round" stroke-linejoin="round"/>
<path d="M15.3294 27.4816L14.9583 26.8298L14.9583 26.8298L15.3294 27.4816ZM26.6704 27.4816L27.0415 26.8298L27.0415 26.8298L26.6704 27.4816ZM12.3334 32.1966L11.8283 32.751L11.8283 32.751L12.3334 32.1966ZM29.6664 32.1966L29.1613 31.6421L29.1613 31.6421L29.6664 32.1966ZM15.7005 28.1333C18.9398 26.2889 23.06 26.2889 26.2993 28.1333L27.0415 26.8298C23.3421 24.7234 18.6577 24.7234 14.9583 26.8298L15.7005 28.1333ZM16.389 34.75H25.6108V33.25H16.389V34.75ZM12.8385 31.6421C12.3619 31.208 12.3232 30.9184 12.3419 30.7554C12.3664 30.5406 12.5225 30.2516 12.9031 29.8954C13.6769 29.1711 14.8793 28.6009 15.7005 28.1333L14.9583 26.8298C14.3 27.2046 12.8231 27.9157 11.8781 28.8002C11.3993 29.2484 10.9361 29.8457 10.8516 30.5851C10.7611 31.3763 11.1236 32.1089 11.8283 32.751L12.8385 31.6421ZM26.2993 28.1333C27.1205 28.6009 28.3229 29.1711 29.0967 29.8954C29.4773 30.2516 29.6334 30.5406 29.6579 30.7554C29.6766 30.9184 29.6379 31.208 29.1613 31.6421L30.1715 32.751C30.8762 32.1089 31.2387 31.3763 31.1482 30.5851C31.0637 29.8457 30.6005 29.2484 30.1217 28.8002C29.1767 27.9157 27.6998 27.2046 27.0415 26.8298L26.2993 28.1333ZM29.1613 31.6421C28.0784 32.6287 26.9659 33.25 25.6108 33.25V34.75C27.4878 34.75 28.9461 33.8673 30.1715 32.751L29.1613 31.6421ZM11.8283 32.751C13.0537 33.8673 14.512 34.75 16.389 34.75V33.25C15.0339 33.25 13.9214 32.6287 12.8385 31.6421L11.8283 32.751ZM24.9558 16C24.9558 17.6853 23.3036 19.25 20.9999 19.25V20.75C23.8942 20.75 26.4558 18.733 26.4558 16H24.9558ZM20.9999 19.25C18.6962 19.25 17.044 17.6853 17.044 16H15.544C15.544 18.733 18.1056 20.75 20.9999 20.75V19.25ZM17.044 16C17.044 14.3147 18.6962 12.75 20.9999 12.75V11.25C18.1056 11.25 15.544 13.267 15.544 16H17.044ZM20.9999 12.75C23.3036 12.75 24.9558 14.3147 24.9558 16H26.4558C26.4558 13.267 23.8942 11.25 20.9999 11.25V12.75Z" fill="#141B34"/>
<path d="M11.5881 5V1" stroke="#141B34" stroke-width="1.5" stroke-linecap="round"/>
<path d="M30.4119 5V1" stroke="#141B34" stroke-width="1.5" stroke-linecap="round"/>
</svg>
