<svg width="42" height="42" viewBox="0 0 42 42" fill="none" xmlns="http://www.w3.org/2000/svg">
<path d="M16.7896 23.807C16.7896 23.1544 16.7896 22.8281 16.8613 22.5604C17.056 21.8339 17.6234 21.2664 18.3499 21.0717C18.6177 21 18.944 21 19.5966 21H22.4036C23.0562 21 23.3825 21 23.6502 21.0717C24.3767 21.2664 24.9442 21.8339 25.1389 22.5604C25.2106 22.8281 25.2106 23.1544 25.2106 23.807V25.2105C25.2106 27.5359 23.3255 29.4211 21.0001 29.4211C18.6747 29.4211 16.7896 27.5359 16.7896 25.2105V23.807Z" stroke="#141B34" stroke-width="1.5" stroke-linecap="round" stroke-linejoin="round"/>
<path d="M25 24.158H27.4896C30.1933 24.158 31.5452 24.158 32.6961 23.9142C36.0274 23.2085 38.7453 21.0436 39.9345 18.1486C40.3454 17.1484 40.5131 15.938 40.8485 13.5173C40.9743 12.6086 41.0373 12.1543 40.9768 11.7826C40.8005 10.7002 39.933 9.81352 38.7645 9.52143C38.3633 9.42114 37.8558 9.42114 36.8408 9.42114H5.1592C4.14423 9.42114 3.63675 9.42114 3.23551 9.52143C2.067 9.81352 1.19951 10.7002 1.02324 11.7826C0.962708 12.1543 1.02565 12.6086 1.15155 13.5173C1.4869 15.938 1.65457 17.1484 2.06545 18.1486C3.25474 21.0436 5.97258 23.2085 9.30392 23.9142C10.4548 24.158 11.8067 24.158 14.5104 24.158H17" stroke="#141B34" stroke-width="1.5"/>
<path d="M3.10522 19.9473V24.1578C3.10522 32.0972 3.10522 36.067 5.43467 38.5334C7.76411 40.9999 11.5133 40.9999 19.0117 40.9999H22.9883C30.4866 40.9999 34.2358 40.9999 36.5653 38.5334C38.8947 36.067 38.8947 32.0972 38.8947 24.1578V19.9473" stroke="#141B34" stroke-width="1.5" stroke-linecap="round" stroke-linejoin="round"/>
<path d="M28.3684 9.42105L28.2058 8.67744C27.3952 4.97207 26.9899 3.11939 26.0251 2.05969C25.0602 1 23.7787 1 21.2155 1H20.7846C18.2214 1 16.9398 1 15.9749 2.05969C15.0101 3.11939 14.6048 4.97207 13.7943 8.67744L13.6316 9.42105" stroke="#141B34" stroke-width="1.5"/>
</svg>
